<?xml version="1.0" encoding="UTF-8"?>
<!DOCTYPE svg PUBLIC "-//W3C//DTD SVG 1.1//EN" "http://www.w3.org/Graphics/SVG/1.1/DTD/svg11.dtd">
<svg xmlns="http://www.w3.org/2000/svg" version="1.1" width="413px" height="413px" style="shape-rendering:geometricPrecision; text-rendering:geometricPrecision; image-rendering:optimizeQuality; fill-rule:evenodd; clip-rule:evenodd" xmlns:xlink="http://www.w3.org/1999/xlink">
<g><path style="opacity:1" fill="#000000" d="M 248.5,28.5 C 250.124,28.3601 251.29,29.0267 252,30.5C 255.411,44.3177 260.744,57.3177 268,69.5C 269.214,71.0488 270.714,72.2155 272.5,73C 277.855,73.9277 283.189,74.9277 288.5,76C 311.023,102.856 330.189,132.022 346,163.5C 360.488,195.277 366.488,228.61 364,263.5C 360.88,303.176 355.38,342.51 347.5,381.5C 272.833,382.833 198.167,382.833 123.5,381.5C 136.345,344.812 153.178,310.145 174,277.5C 184.167,262.667 194.333,247.833 204.5,233C 199.784,231.318 194.951,229.818 190,228.5C 163.613,232.12 137.113,234.62 110.5,236C 107.228,237.608 104.228,239.608 101.5,242C 96.8887,243.007 92.5554,242.34 88.5,240C 84.9738,233.64 79.9738,228.807 73.5,225.5C 79.9121,216.298 88.2454,209.465 98.5,205C 94.4164,204.882 90.4164,205.549 86.5,207C 78.8043,210.55 71.8043,215.05 65.5,220.5C 53.5261,215.032 48.8594,205.866 51.5,193C 47.5161,185.479 46.6827,177.646 49,169.5C 50.3999,166.098 52.5665,163.264 55.5,161C 61.2874,158.606 66.9541,155.94 72.5,153C 80.5652,147.272 88.8985,141.939 97.5,137C 104.075,134.69 110.742,132.69 117.5,131C 129.5,125 141.5,119 153.5,113C 160.524,108.487 167.191,103.487 173.5,98C 189.049,90.7255 204.715,83.7255 220.5,77C 214.044,63.1329 209.711,48.6329 207.5,33.5C 211.266,33.2847 214.6,31.9513 217.5,29.5C 223.374,39.2099 230.207,48.2099 238,56.5C 238.5,47.4954 239,38.4954 239.5,29.5C 242.713,29.81 245.713,29.4767 248.5,28.5 Z"/></g>
<g><path style="opacity:1" fill="#fe0000" d="M 229.5,66.5 C 232.833,69.6645 236.333,72.6645 240,75.5C 241.283,79.414 242.116,83.414 242.5,87.5C 246.476,87.0072 250.31,86.0072 254,84.5C 253.119,78.5393 252.452,72.5393 252,66.5C 255.846,74.0152 260.846,80.6819 267,86.5C 268.802,91.3184 268.302,95.9851 265.5,100.5C 269.059,103.281 273.059,104.948 277.5,105.5C 278.732,101.069 279.732,96.5686 280.5,92C 280.397,90.4385 280.063,88.9385 279.5,87.5C 280,87.1667 280.5,86.8333 281,86.5C 303.187,113.063 321.854,142.063 337,173.5C 349.218,201.929 354.218,231.595 352,262.5C 349.175,298.776 344.341,334.776 337.5,370.5C 271.832,370.667 206.166,370.5 140.5,370C 150.465,346.238 161.631,323.071 174,300.5C 188.881,277.234 204.381,254.401 220.5,232C 244.874,224.786 263.541,210.286 276.5,188.5C 273.638,185.812 270.472,183.479 267,181.5C 255.383,201.11 238.55,213.943 216.5,220C 207.622,220.824 199.122,219.324 191,215.5C 184.611,217.259 178.111,218.426 171.5,219C 150.533,221.074 129.533,222.741 108.5,224C 103.849,224.742 100.016,226.908 97,230.5C 95.4851,228.323 93.9851,226.156 92.5,224C 92.7591,222.739 93.4258,221.739 94.5,221C 106.599,214.95 118.932,209.45 131.5,204.5C 131.354,200.481 131.021,196.481 130.5,192.5C 115.79,191.202 101.124,191.702 86.5,194C 78.9422,196.446 71.9422,199.946 65.5,204.5C 63.8877,203.451 62.8877,201.951 62.5,200C 63.562,196.211 63.7287,192.377 63,188.5C 61.4336,185.134 60.267,181.634 59.5,178C 59.7413,176.016 60.4079,174.183 61.5,172.5C 67.0877,169.577 72.7543,166.744 78.5,164C 86.5652,158.272 94.8985,152.939 103.5,148C 126.048,141.06 147.381,131.394 167.5,119C 172.683,115.24 177.683,111.24 182.5,107C 200.167,99.3333 217.833,91.6667 235.5,84C 236.517,82.9505 236.684,81.7839 236,80.5C 233.548,75.9317 231.382,71.265 229.5,66.5 Z"/></g>
<g><path style="opacity:1" fill="#000000" d="M 201.5,108.5 C 206.179,108.334 210.845,108.501 215.5,109C 207.617,113.877 200.617,119.877 194.5,127C 187.058,130.178 181.225,128.345 177,121.5C 177.052,118.243 178.552,115.743 181.5,114C 188.055,111.33 194.721,109.497 201.5,108.5 Z"/></g>
<g><path style="opacity:1" fill="#000000" d="M 68.5,175.5 C 76.3848,176.115 78.7181,179.948 75.5,187C 67.2463,190.081 63.7463,187.248 65,178.5C 66.1451,177.364 67.3117,176.364 68.5,175.5 Z"/></g>
</svg>
